<svg xmlns="http://www.w3.org/2000/svg" width="463.3" height="437.8" viewBox="0 0 463.3 437.8"><title>designing</title><g id="Layer_2" data-name="Layer 2"><g id="Layer_3" data-name="Layer 3"><g style="opacity:0.55"><path d="M394.4,259.8a18.9,18.9,0,0,0-19.6-4.3l16.5-16.3a46.7,46.7,0,0,0,0-66.1h0a47.5,47.5,0,0,0-60.2-5.3l38.8-38.5a56.3,56.3,0,0,0,0-79.6h0a57.2,57.2,0,0,0-80.1,0l-32.1,32a33.3,33.3,0,0,0,0-47.1h0a33.9,33.9,0,0,0-47.4,0L35.5,208.2a33.1,33.1,0,0,0,0,47.1h0a33.7,33.7,0,0,0,47.3,0L50.7,287.2a56.1,56.1,0,0,0,0,79.5h0a57,57,0,0,0,80.1,0l44.8-44.5a46.6,46.6,0,0,0,5.3,59.7h0a47.4,47.4,0,0,0,66.6,0l5-4.9a18.5,18.5,0,0,0,4.3,19.5,18.8,18.8,0,0,0,26.4,0L394.4,286.1a18.5,18.5,0,0,0,0-26.3Z" style="fill:#e9eff4"/></g><rect id="Header" x="130.1" y="126.9" width="192" height="26" style="fill:#005aff"/><g id="Image"><rect x="130.1" y="173.9" width="141" height="89" style="fill:#12114a"/><path d="M320.1,189.9v85h-137v-85h137m2-2h-141v89h141v-89Z" style="fill:#005aff"/><polygon points="211.2 255.1 198.4 267.9 224 267.9 211.2 255.1" style="fill:#005aff"/><polygon points="236.1 238.5 211.2 267.9 261 267.9 236.1 238.5" style="fill:#005aff"/><polygon points="274.5 209.1 238 267.9 310.9 267.9 274.5 209.1" style="fill:#005aff"/><circle cx="211.1" cy="214.9" r="13" style="fill:#fff"/><g id="Pointer"><path d="M251.1,224.9v3.4h-1.2c-.2,0-.3,0,.2.1v-3.4Z" style="fill:#fff"/><path d="M249.9,239h1.2v4h-1v-4C249.6,239,249.7,239,249.9,239Z" style="fill:#fff"/><path d="M249.4,238.9a5.3,5.3,0,0,1,0-10.6" style="fill:none;stroke:#fff;stroke-linecap:square;stroke-linejoin:round"/><path d="M250.3,228.3a5.3,5.3,0,0,1,0,10.6" style="fill:none;stroke:#fff;stroke-linecap:square;stroke-linejoin:round"/><path d="M240.1,232.9h4.4v1h-4.4Z" style="fill:#fff"/><path d="M255.2,233.6v.3h2.9v1h-2.9Z" style="fill:#fff"/><circle cx="250.1" cy="233.9" r="2" style="fill:#fff"/></g></g><g id="Content"><rect x="131.1" y="294.9" width="87" height="5" style="fill:#aaa"/><rect x="131.1" y="307.9" width="87" height="5" style="fill:#aaa"/><rect x="131.1" y="320.9" width="87" height="5" style="fill:#aaa"/><rect x="235.1" y="294.9" width="87" height="5" style="fill:#aaa"/><rect x="235.1" y="307.9" width="87" height="5" style="fill:#aaa"/><rect x="235.1" y="320.9" width="87" height="5" style="fill:#aaa"/></g><g id="Left_Panel" data-name="Left Panel"><circle cx="75.6" cy="137.4" r="25.5" style="fill:#005aff"/><rect x="50.1" y="173.9" width="51" height="6" rx="3" style="fill:#12114a"/><rect x="50.1" y="186.9" width="51" height="6" rx="3" style="fill:#12114a"/><rect x="50.1" y="198.9" width="51" height="6" rx="3" style="fill:#12114a"/></g><g id="Right_Panel" data-name="Right Panel"><rect x="349.1" y="127.9" width="5" height="198" style="fill:#bfbebe"/><circle cx="391.6" cy="149.4" r="21.5" style="fill:#005aff"/><text transform="translate(382.4 158.3)" style="font-size:23.89559555053711px;fill:#fff;font-family:Material-Design-Iconic-Font"></text><circle cx="391.6" cy="200.4" r="21.5" style="fill:#005aff"/><text transform="translate(382.4 208.8)" style="font-size:23.89559555053711px;fill:#fff;font-family:Material-Design-Iconic-Font"></text><circle cx="391.6" cy="251.4" r="21.5" style="fill:#005aff"/><text transform="translate(382.4 260.5)" style="font-size:23.89559555053711px;fill:#fff;font-family:Material-Design-Iconic-Font"></text><circle cx="391.6" cy="303.4" r="21.5" style="fill:#005aff"/><text transform="translate(381.1 312.9)" style="font-size:23.89559555053711px;fill:#fff;font-family:Material-Design-Iconic-Font"></text></g><g style="opacity:0.2"><circle cx="122.3" cy="35" r="22" style="fill:#f78e23"/><circle cx="335.3" cy="10" r="10" style="fill:#00a54a"/><rect x="18" y="97.4" width="32" height="6" rx="3" style="fill:#0eb049"/><rect x="294" y="75.4" width="20" height="8" rx="4" style="fill:#ff3b2f"/><circle cx="273.8" cy="356.5" r="16.5" style="fill:#67a6d0"/><path d="M144.5,381.8a28,28,0,0,1-28,28,28.1,28.1,0,0,1,28,28,28,28,0,0,1,28-28,28,28,0,0,1-28-28Z" style="fill:#ff3e32"/><circle cx="442.3" cy="245" r="12.7" style="fill:#0eb049"/><circle cx="435.3" cy="77" r="28" style="fill:#4dc8f5"/><rect x="44" y="368.4" width="32" height="6" rx="3" style="fill:#4dc8f5"/><rect x="410" y="334.4" width="32" height="6" rx="3" style="fill:#fcb816"/><circle cx="10.5" cy="186.9" r="10.5" style="fill:#fcb816"/><circle cx="220.5" cy="70.9" r="8.5" style="fill:#00a54a"/><polygon points="348 393.4 360 381.4 372 393.4 348 393.4" style="fill:#0c4167"/></g></g></g></svg>