<svg xmlns="http://www.w3.org/2000/svg" width="463.3" height="437.8" viewBox="0 0 463.3 437.8"><title>rwquirement analysis</title><g id="Layer_2" data-name="Layer 2"><g id="Layer_2-2" data-name="Layer 2"><g style="opacity:0.55"><path d="M394.4,259.8a18.9,18.9,0,0,0-19.6-4.3l16.5-16.3a46.7,46.7,0,0,0,0-66.1h0a47.5,47.5,0,0,0-60.2-5.3l38.8-38.5a56.3,56.3,0,0,0,0-79.6h0a57.2,57.2,0,0,0-80.1,0l-32.1,32a33.3,33.3,0,0,0,0-47.1h0a33.9,33.9,0,0,0-47.4,0L35.5,208.2a33.1,33.1,0,0,0,0,47.1h0a33.7,33.7,0,0,0,47.3,0L50.7,287.2a56.1,56.1,0,0,0,0,79.5h0a57,57,0,0,0,80.1,0l44.8-44.5a46.6,46.6,0,0,0,5.3,59.7h0a47.4,47.4,0,0,0,66.6,0l5-4.9a18.5,18.5,0,0,0,4.3,19.5,18.8,18.8,0,0,0,26.4,0L394.4,286.1a18.5,18.5,0,0,0,0-26.3Z" style="fill:#e9eff4"/></g><g id="Enquiry"><path d="M93,123.4a5.1,5.1,0,0,1,5,5v30a5,5,0,0,1-5,5H63a5,5,0,0,1-5-5v-30a5,5,0,0,1,5-5H93m0-5H63a10,10,0,0,0-10,10v30a10,10,0,0,0,10,10H93a10,10,0,0,0,10-10v-30a10,10,0,0,0-10-10Z" style="fill:#12114a"/><rect x="132" y="123.4" width="273" height="16" rx="8" style="fill:#005aff"/><rect x="132" y="150.4" width="202" height="16" rx="8" style="fill:#005aff"/><text transform="translate(67.4 158.4)" style="font-size:67.2480697631836px;fill:#005aff;stroke:#fff;stroke-miterlimit:10;font-family:Material-Design-Iconic-Font"></text><path d="M93,204.4a5.1,5.1,0,0,1,5,5v30a5,5,0,0,1-5,5H63a5,5,0,0,1-5-5v-30a5,5,0,0,1,5-5H93m0-5H63a10,10,0,0,0-10,10v30a10,10,0,0,0,10,10H93a10,10,0,0,0,10-10v-30a10,10,0,0,0-10-10Z" style="fill:#12114a"/><rect x="132" y="204.4" width="273" height="16" rx="8" style="fill:#005aff"/><rect x="132" y="231.4" width="202" height="16" rx="8" style="fill:#005aff"/><path d="M93,284.4a5.1,5.1,0,0,1,5,5v30a5,5,0,0,1-5,5H63a5,5,0,0,1-5-5v-30a5,5,0,0,1,5-5H93m0-5H63a10,10,0,0,0-10,10v30a10,10,0,0,0,10,10H93a10,10,0,0,0,10-10v-30a10,10,0,0,0-10-10Z" style="fill:#12114a"/><rect x="132" y="284.4" width="273" height="16" rx="8" style="fill:#005aff"/><rect x="132" y="311.4" width="202" height="16" rx="8" style="fill:#005aff"/></g><g style="opacity:0.2"><circle cx="122.3" cy="35" r="22" style="fill:#f78e23"/><circle cx="335.3" cy="10" r="10" style="fill:#00a54a"/><rect x="18" y="97.4" width="32" height="6" rx="3" style="fill:#0eb049"/><rect x="294" y="75.4" width="20" height="8" rx="4" style="fill:#ff3b2f"/><circle cx="273.8" cy="356.5" r="16.5" style="fill:#67a6d0"/><path d="M144.5,381.8a28,28,0,0,1-28,28,28.1,28.1,0,0,1,28,28,28,28,0,0,1,28-28,28,28,0,0,1-28-28Z" style="fill:#ff3e32"/><circle cx="442.3" cy="245" r="12.7" style="fill:#0eb049"/><circle cx="435.3" cy="77" r="28" style="fill:#4dc8f5"/><rect x="44" y="368.4" width="32" height="6" rx="3" style="fill:#4dc8f5"/><rect x="410" y="334.4" width="32" height="6" rx="3" style="fill:#fcb816"/><circle cx="10.5" cy="186.9" r="10.5" style="fill:#fcb816"/><circle cx="220.5" cy="70.9" r="8.5" style="fill:#00a54a"/><polygon points="348 393.4 360 381.4 372 393.4 348 393.4" style="fill:#0c4167"/></g></g></g></svg>